<svg width="128" height="120" viewBox="0 0 128 120" fill="none" xmlns="http://www.w3.org/2000/svg" aria-hidden="true">
<path d="M79.1006 0.5V118.424L78.6826 118.493C77.8828 118.626 77.083 118.76 76.2832 118.894L76.2422 118.9H73.8008C70.5516 118.9 67.4977 118.426 64.6426 117.475L64.6299 117.47C61.6354 116.381 59.0429 114.746 56.8584 112.564L56.4277 112.147C54.3065 110.034 52.6113 107.446 51.3389 104.393L51.3369 104.386C49.9741 100.979 49.3008 96.9122 49.3008 92.2002V25C49.3008 20.1541 50.0405 16.1402 51.5498 12.9844C52.9536 10.0492 54.7851 7.69548 57.0498 5.93848L57.5078 5.59473C59.9655 3.68654 62.7631 2.39169 65.8945 1.71094C68.9963 0.903589 72.1653 0.500033 75.4004 0.5H79.1006ZM31.0781 8.7002C33.0013 8.7002 34.8841 9.04022 36.7236 9.71875C38.5983 10.2997 40.2597 11.3966 41.707 12.9902H41.7061C43.1663 14.4882 44.3225 16.5371 45.1914 19.1094C46.0699 21.7103 46.5 25.0157 46.5 29.0078V84.4688C46.5 88.3511 46.1086 91.7004 45.3154 94.5078L45.3145 94.5137C44.5262 97.1921 43.4552 99.4451 42.0947 101.262L42.0957 101.263C40.8114 103.081 39.275 104.459 37.4854 105.381L37.4785 105.385L37.4707 105.389C35.7696 106.192 33.9473 106.592 32.0107 106.592H30.5537L30.4971 106.578C30.0307 106.468 29.564 106.358 29.0977 106.248L28.7129 106.157V8.7002H31.0781ZM127.5 0.5V63.7998C127.5 68.244 126.894 72.1704 125.671 75.5693L125.661 75.5928C124.307 78.8417 122.543 81.6273 120.364 83.9424L120.359 83.9482L120.354 83.9531C118.179 86.1279 115.729 87.83 113.005 89.0557L112.992 89.0615L112.978 89.0674C110.119 90.1561 107.126 90.7002 104 90.7002C100.345 90.7002 97.1388 90.0914 94.3945 88.8564L94.3857 88.8516L94.376 88.8477C91.6514 87.4853 89.3941 85.7084 87.6123 83.5156C85.8372 81.3309 84.5392 78.872 83.7207 76.1436L83.7188 76.1377C82.9053 73.2908 82.5 70.3108 82.5 67.2002V66.1133L83.3252 66.8203C84.2037 67.5733 85.2081 68.1394 86.3418 68.5195C87.3632 68.7732 88.3826 68.9004 89.4004 68.9004C91.3345 68.9003 92.8309 68.5781 93.9277 67.9775C94.9248 67.2248 95.7318 66.3537 96.3555 65.3643C96.8611 64.2189 97.2449 62.9425 97.5029 61.5312C97.6334 60.0879 97.7002 58.5776 97.7002 57V28.5996C97.7003 18.8152 99.7745 11.6561 104.041 7.25195C108.298 2.72393 114.582 0.500036 122.8 0.5H127.5ZM3.44824 8.7002C8.33676 8.70021 12.0748 10.5842 14.5859 14.3652L14.8164 14.7139C17.1578 18.3867 18.2871 24.1725 18.2871 31.9785V55.418C18.2871 56.722 18.3261 57.9707 18.4023 59.1641C18.5532 60.3331 18.7771 61.39 19.0723 62.3369C19.4314 63.1439 19.892 63.8469 20.4531 64.4502C21.0386 64.9005 21.8431 65.1514 22.917 65.1514C23.4712 65.1514 24.0289 65.0534 24.5928 64.8564C25.2091 64.561 25.7661 64.1191 26.2617 63.5176L27.1475 62.4424V63.8359C27.1474 66.3976 26.9118 68.8517 26.4385 71.1973L26.4375 71.2021C25.9616 73.4483 25.2058 75.4787 24.167 77.2891C23.1229 79.1085 21.7923 80.5952 20.1748 81.7402L20.165 81.7471L20.1543 81.7539C18.509 82.8021 16.5862 83.3174 14.4062 83.3174C12.5329 83.3173 10.7421 82.8555 9.04004 81.9375L9.02344 81.9287L9.00879 81.9189C7.39113 80.8883 5.94662 79.464 4.67188 77.6592L4.66406 77.6475C3.38733 75.7268 2.35763 73.4228 1.56934 70.7441L1.56738 70.7354L1.56445 70.7266C0.852349 67.9259 0.5 64.6913 0.5 61.0293V8.7002H3.44824Z" fill="url(#paint0_linear_sahib_assets)" stroke="url(#paint1_linear_sahib_assets)"/>
<defs>
<linearGradient id="paint0_linear_sahib_assets" x1="121" y1="42.5" x2="-79.5" y2="18.5" gradientUnits="userSpaceOnUse">
<stop offset="0.0480769" stop-color="#3A8AAF" stop-opacity="0.42"/>
<stop offset="0.134615" stop-color="#11A9F0"/>
<stop offset="0.269725" stop-color="#DF7825"/>
<stop offset="0.442308" stop-color="#CF571F"/>
<stop offset="0.576923" stop-color="#D0651C" stop-opacity="0.25"/>
</linearGradient>
<linearGradient id="paint1_linear_sahib_assets" x1="123" y1="14.5" x2="7.5" y2="51.5" gradientUnits="userSpaceOnUse">
<stop stop-color="#48C5FF"/>
<stop offset="1" stop-color="#CF651C" stop-opacity="0.68"/>
</linearGradient>
</defs>
</svg>
